<svg width="1200" height="900" viewBox="0 0 1200 900" fill="none" xmlns="http://www.w3.org/2000/svg">
  <defs>
    <linearGradient id="paint0" x1="0" y1="0" x2="1200" y2="900" gradientUnits="userSpaceOnUse">
      <stop stop-color="#F8FAFC" />
      <stop offset="1" stop-color="#E2E8F0" />
    </linearGradient>
    <linearGradient id="paint1" x1="0" y1="0" x2="800" y2="0" gradientUnits="userSpaceOnUse">
      <stop stop-color="#0F172A" />
      <stop offset="1" stop-color="#334155" />
    </linearGradient>
  </defs>
  <rect width="1200" height="900" rx="48" fill="url(#paint0)" />
  <rect x="120" y="160" width="960" height="560" rx="40" fill="#FFFFFF" />
  <rect x="180" y="240" width="560" height="20" rx="10" fill="url(#paint1)" />
  <rect x="180" y="290" width="420" height="14" rx="7" fill="#CBD5F5" />
  <rect x="180" y="330" width="380" height="14" rx="7" fill="#CBD5F5" />
  <rect x="180" y="370" width="300" height="14" rx="7" fill="#CBD5F5" />
  <rect x="180" y="450" width="240" height="140" rx="20" fill="#E2E8F0" />
  <rect x="450" y="450" width="240" height="140" rx="20" fill="#E2E8F0" />
  <rect x="720" y="450" width="240" height="140" rx="20" fill="#E2E8F0" />
  <circle cx="960" cy="250" r="48" fill="#0F172A" />
  <path d="M935 250L952 266L985 234" stroke="#F8FAFC" stroke-width="12" stroke-linecap="round" stroke-linejoin="round" />
  <rect x="180" y="620" width="260" height="18" rx="9" fill="#94A3B8" />
  <rect x="180" y="660" width="340" height="12" rx="6" fill="#CBD5F5" />
</svg>
